<svg xmlns="http://www.w3.org/2000/svg" viewBox="0 0 32 32">
  <!-- Background -->
  <rect width="32" height="32" rx="8" fill="#7c3aed"/>

  <!-- Tooth shape (white) -->
  <path d="
    M16 5.5
    C18.5 5.5 22.5 6.5 22.5 10.5
    L21 18.5
    C20.5 22 19.5 23 18.5 23
    L18 18.5
    C17.5 16.5 16.8 15.8 16 15.8
    C15.2 15.8 14.5 16.5 14 18.5
    L13.5 23
    C12.5 23 11.5 22 11 18.5
    L9.5 10.5
    C9.5 6.5 13.5 5.5 16 5.5
    Z
  " fill="white"/>

  <!-- Letter F (dark purple, centered on crown) -->
  <!-- Vertical bar -->
  <rect x="13.5" y="8.5" width="2.2" height="8" rx="0.4" fill="#4c1d95"/>
  <!-- Top horizontal bar -->
  <rect x="13.5" y="8.5" width="5.5" height="2.2" rx="0.4" fill="#4c1d95"/>
  <!-- Middle horizontal bar -->
  <rect x="13.5" y="13.3" width="4.2" height="2" rx="0.4" fill="#4c1d95"/>
</svg>
